<?xml version="1.0" encoding="UTF-8"?>
<svg id="Layer_2" data-name="Layer 2" xmlns="http://www.w3.org/2000/svg" viewBox="0 0 1457.73 315.64">
  <defs>
    <style>
      .cls-1 {
        fill: #8e4585;
      }

      .cls-2 {
        fill: #f15d24;
      }
    </style>
  </defs>
  <g id="Layer_1-2" data-name="Layer 1">
    <g>
      <path class="cls-1" d="M545.19,74.84c1.54,.26,2.13-.34,2.76-.78,9.26-6.48,19.61-9.86,30.8-11.05,17.17-1.83,33.44,1.19,48.84,8.88,8.37,4.18,15.73,9.78,22.23,16.52,2.92,3.03,2.7,3.34,5.78,.07,12.5-13.26,27.99-20.94,45.74-24.47,20.84-4.14,39.99,.15,57.85,11.21,9.16,5.68,17.41,12.5,24.77,20.35,9.27,9.88,14.31,21.8,16.54,35.05,1.47,8.71,1.88,17.47,1.88,26.28,0,36.95,0,73.9,0,110.85,0,5.82,.41,5.49-5.42,5.48-10.56,0-21.11,0-31.67,0-.96,0-1.92,.02-2.88-.01-2.32-.09-2.66-.44-2.77-2.89-.05-1.28-.02-2.56-.02-3.84,0-36.15,.01-72.3-.01-108.45,0-5.75-.39-11.48-1.1-17.21-3.54-28.36-35.8-46.51-63.65-31.08-4.37,2.42-8.2,5.53-11.56,9.25-3.18,3.53-5.34,7.58-6.54,12.13-1.1,4.18-1.88,8.43-2,12.77-.11,4.16-.26,8.31-.27,12.47-.02,36.95,0,73.9-.01,110.85,0,6.6,.56,6.01-5.83,6.02-10.4,.01-20.79,0-31.19,0-1.28,0-2.56,0-3.84-.05-1.16-.05-1.7-.77-1.74-1.87-.05-1.44-.05-2.88-.05-4.32,0-36.95,.02-73.9-.03-110.85,0-5.27-.03-10.53-.83-15.78-1.69-11-7.12-19.77-15.65-26.65-17.66-14.26-40.28-11.2-54.22-.25-6.13,4.82-10.14,10.97-12.24,18.45-1.97,7.02-2.14,14.21-2.15,21.4-.03,37.75-.01,75.5-.02,113.25,0,1.6,.01,3.2-.09,4.8-.07,1.06-.67,1.76-1.82,1.82-.48,.02-.96,.05-1.44,.05-12,0-23.99,0-35.99,0-.64,0-1.28-.02-1.91-.1-.93-.11-1.4-.74-1.46-1.6-.08-1.11-.07-2.24-.07-3.36,0-65.42,0-130.85,0-196.27,0-.96-.02-1.92,.03-2.88,.1-1.73,.53-2.13,2.4-2.22,1.12-.05,2.24-.02,3.36-.02,9.92,0,19.84,0,29.75,0,1.12,0,2.24-.02,3.36,.03,1.95,.09,2.29,.38,2.35,2.21,.06,1.91,.01,3.83,.01,5.82Z"/>
      <path class="cls-1" d="M42.75,84.88c2.17-.1,3.02-1.14,4.03-1.86,13.5-9.65,28.42-16.05,44.81-18.51,31.2-4.69,59.43,2.66,84.09,22.41,21.49,17.22,34.64,39.7,38.73,66.89,4.91,32.64-3.52,61.87-25.12,86.96-15.75,18.29-35.64,29.91-59.35,34.66-28.28,5.66-54.63,.58-78.98-14.85-2.16-1.37-4.22-2.89-6.36-4.3-.78-.52-1.7-.1-1.75,.79-.08,1.43-.1,2.87-.1,4.31,0,16.31,0,32.63,0,48.94,0,5.61,.29,5.33-5.1,5.33-10.88,0-21.75,0-32.63,0-1.12,0-2.24,.02-3.36-.07-.87-.07-1.49-.58-1.56-1.5-.08-1.11-.11-2.23-.11-3.35C0,231.06,0,151.42,0,71.77c0-.8-.02-1.6,.03-2.4,.1-1.76,.49-2.17,2.39-2.21,3.36-.06,6.72-.03,10.08-.03,8,0,15.99,0,23.99,0,.96,0,1.92-.02,2.88,0,3.17,.07,3.33,.19,3.37,3.17,.05,3.36,.01,6.72,.01,10.08,0,1.42,0,2.85,0,4.49ZM108.21,236.09c32.96,.47,65.95-25.6,65.98-65.78,.03-37.81-30.26-65.39-65.19-65.64-37.6-.27-66.16,30.33-66.25,65.57-.09,35.85,29.29,65.9,65.46,65.85Z"/>
      <path class="cls-1" d="M1115.92,112.55c-39.87-8.6-68.63,16.14-76.83,42.95-9.14,29.87,4.55,61.73,32.62,75.7,27.47,13.66,61.38,5.75,79.83-20.26,10.09-14.23,13.75-30.15,10.81-47.35-2.94-17.19-11.88-30.82-25.64-41.09,.14-1.23,.86-1.61,1.52-2.04,10.85-7.07,21.7-14.15,32.57-21.21,3.41-2.22,3.4-2.17,6.29,.84,13.36,13.94,22.71,30.2,26.8,49.07,8.39,38.66-.85,72.66-28.6,101.05-16.25,16.63-36.23,26.74-59.33,29.9-36.53,5.01-68.09-5.51-93.8-32.01-16.55-17.05-26.04-37.72-28.8-61.42-2.39-20.56,.83-40.2,9.77-58.81,9.32-19.39,23.36-34.61,41.81-45.72,14.52-8.75,30.32-13.52,47.15-14.82,6.37-.49,12.78-.47,19.16,.41,2.43,.34,2.88,.86,3.01,3.34,.19,3.67,.48,7.34,.69,11.01,.52,9.26,1.03,18.52,1.53,27.78,.04,.79,.16,1.6-.56,2.68Z"/>
      <path class="cls-1" d="M481.33,170.18c0,32.31,0,64.62,0,96.92,0,1.59-.08,3.19-.22,4.78-.06,.67-.58,1.14-1.27,1.23-.79,.09-1.59,.11-2.39,.11-11.36,0-22.71,0-34.07,0-.48,0-.96,0-1.44-.03-1.53-.11-2.01-.52-2.07-2.03-.08-1.76-.03-3.52-.05-5.28-.01-1.28-.01-2.56-.08-3.84-.05-.93-.91-1.4-1.64-.94-.4,.25-.79,.54-1.17,.84-8.99,7.05-19.22,11.37-30.34,13.65-13.47,2.75-26.98,2.94-40.47,.11-15.25-3.2-28.32-10.63-39.87-20.94-5.15-4.59-9.8-9.64-14.3-14.84-5.36-6.17-8.48-13.49-10.59-21.29-2.31-8.53-3.29-17.26-3.77-26.05-.27-4.95-.28-9.91-.29-14.87-.02-35.03-.02-70.05,0-105.08,0-6.44-.58-5.86,5.98-5.87,10.24-.02,20.47,0,30.71,0,1.28,0,2.56,0,3.84,.05,1.11,.03,1.8,.58,1.83,1.74,.04,1.44,.05,2.88,.05,4.32,0,32.63,0,65.26,0,97.88,0,6.88,.1,13.75,.78,20.6,.84,8.56,3.1,16.64,7.93,23.87,6.5,9.72,15.45,16.09,26.75,19.01,13.22,3.42,26.07,2.34,38.09-4.38,11.56-6.47,19.26-16.08,22.57-29.08,2.07-8.12,2.72-16.38,2.73-24.71,.03-34.39,.01-68.78,.02-103.16,0-1.44,0-2.88,.05-4.32,.04-1.15,.72-1.7,1.82-1.77,.64-.04,1.28-.05,1.92-.05,11.84,0,23.67,0,35.51,0,.48,0,.96,0,1.44,.03,1.41,.11,1.9,.6,1.98,2.13,.07,1.44,.04,2.88,.04,4.32,0,32.31,0,64.62,0,96.93Z"/>
      <path class="cls-1" d="M955.14,125.44c-2.25-1.43-4.66-2.96-7.07-4.5-11.14-7.14-23.09-12.41-36.06-15.16-8.52-1.81-17.1-2.45-25.7-.51-4.43,1-8.51,2.73-11.98,5.76-2.47,2.16-4.17,4.8-5.09,7.97-1.54,5.32-.25,9.81,3.96,13.39,3.19,2.71,6.8,4.77,10.64,6.44,6.17,2.68,12.5,4.88,18.93,6.87,8.25,2.55,16.5,5.07,24.71,7.76,7.77,2.54,15.23,5.83,22.3,9.95,8.25,4.82,15.42,10.84,20.67,18.95,4.72,7.29,7.21,15.28,7.67,23.92,.45,8.52-.11,16.92-2.82,25.11-3.61,10.91-9.71,20.1-18.49,27.5-10.54,8.89-22.82,13.95-36.29,16.4-16.01,2.9-31.87,1.77-47.58-2-21.49-5.16-40.9-14.56-57.81-28.91-.61-.52-1.24-1.01-1.79-1.59-.47-.5-.55-1.14-.21-1.77,.31-.56,.65-1.1,1.02-1.62,6.75-9.53,13.5-19.05,20.27-28.57,.37-.52,.78-1.02,1.22-1.47,.51-.51,1.14-.57,1.73-.17,1.19,.81,2.38,1.62,3.52,2.5,7.25,5.57,14.89,10.5,23.11,14.53,10.3,5.04,21.11,8.38,32.52,9.49,7.18,.69,14.39,.57,21.37-1.72,4.47-1.47,8.51-3.62,11.76-7.13,4.11-4.45,5.39-9.69,4.55-15.54-.48-3.34-2.43-5.88-4.87-8.04-2.78-2.46-6-4.23-9.35-5.79-7.28-3.38-14.95-5.62-22.64-7.83-10.14-2.91-20.34-5.64-30.17-9.54-7.46-2.96-14.62-6.46-21.15-11.18-7.4-5.34-13.34-11.9-17.1-20.31-2.72-6.06-4.09-12.43-4.33-19.05-.27-7.4,.37-14.69,2.58-21.8,4.93-15.82,15.14-27.2,29.5-35.03,8.96-4.89,18.63-7.56,28.73-8.75,22.19-2.6,43.26,1.8,63.7,10.15,9.08,3.71,17.47,8.66,25.58,14.12,.53,.36,1.08,.7,1.55,1.12,.51,.45,.73,1.03,.36,1.69-.47,.84-.93,1.68-1.42,2.5-5.77,9.59-11.54,19.18-17.33,28.77-.65,1.08-1.11,2.33-2.71,3.08Z"/>
      <path class="cls-1" d="M1275.5,190.31c0,25.27,0,50.54,0,75.81,0,1.12,.02,2.24,0,3.36-.06,3.68-.07,3.73-3.79,3.74-11.67,.03-23.35,0-35.02,0-.64,0-1.28,.02-1.92-.03-1.42-.11-1.85-.56-1.92-2.17-.07-1.44-.04-2.88-.04-4.32,0-51.18,0-102.36,0-153.53,0-1.6-.06-3.19-.15-4.79-.04-.7-.48-1.21-1.2-1.26-1.27-.1-2.55-.17-3.82-.17-6.56-.02-13.11,0-19.67-.01-.96,0-1.92-.03-2.87-.1-.94-.07-1.38-.7-1.47-1.57-.07-.63-.06-1.28-.06-1.92,0-11.04,0-22.07,0-33.11,0-.64,.03-1.28,.09-1.91,.08-.93,.65-1.43,1.55-1.47,1.28-.06,2.56-.07,3.83-.08,6.4,0,12.79,0,19.19,0,.96,0,1.92-.02,2.88-.07,.89-.05,1.53-.52,1.68-1.4,.29-1.73,.51-3.48,.73-5.22,1.26-10.14,4.37-19.65,9.81-28.32,7.97-12.68,19.37-21.08,33.29-26.22,10.32-3.81,21.06-5.22,31.99-5.5,3.84-.1,7.68-.03,11.51,.04,1.54,.03,2.06,.56,2.19,1.97,.07,.79,.06,1.6,.06,2.4,0,10.56,0,21.11,0,31.67,0,.64,.01,1.28-.03,1.92-.12,1.74-.52,2.14-2.43,2.18-5.75,.1-11.51-.16-17.25,.48-3.19,.35-6.32,.9-9.37,1.92-8.94,2.99-14.55,9.12-16.57,18.27-1.21,5.5-2.2,5.95,4.49,5.92,11.99-.06,23.99-.02,35.98-.01,1.28,0,2.56-.02,3.84,.07,.87,.06,1.47,.57,1.54,1.51,.05,.64,.09,1.28,.09,1.91,0,11.04,0,22.07,0,33.11,0,.64,0,1.28-.05,1.92-.08,.91-.6,1.49-1.51,1.54-1.27,.08-2.55,.1-3.83,.1-12.31,0-24.63,0-36.94,0-4.89,0-4.8-.06-4.8,4.69,0,26.23,0,52.46,0,78.69Z"/>
      <path class="cls-1" d="M1370.83,189.83c0-25.43,0-50.85,0-76.28,0-1.12,.02-2.24,0-3.36-.08-3.04-.19-3.21-3.33-3.23-7.68-.04-15.35-.01-23.03-.02-1.28,0-2.56-.02-3.83-.1-.9-.05-1.49-.59-1.57-1.49-.09-.95-.07-1.92-.07-2.88,0-10.39,0-20.79,0-31.18,0-.96,.02-1.92,.09-2.87,.06-.91,.61-1.47,1.5-1.54,1.27-.09,2.55-.1,3.83-.1,7.04,0,14.07,0,21.11,0,1.12,0,2.24,0,3.36-.07,1.08-.07,1.8-.64,1.87-1.77,.07-1.28,.07-2.56,.07-3.84,0-10.07,0-20.15,0-30.22,0-.8-.01-1.6,0-2.4,.06-3.68,.07-3.73,3.79-3.74,11.83-.03,23.67-.01,35.5,0,.64,0,1.28-.01,1.92,.06,.88,.1,1.48,.61,1.54,1.53,.08,1.27,.1,2.55,.1,3.83,0,10.39,0,20.79,0,31.18,0,1.28-.02,2.56,.08,3.83,.07,.87,.6,1.48,1.54,1.52,1.28,.06,2.56,.09,3.83,.09,11.03,0,22.07,0,33.1,0,1.28,0,2.56-.01,3.83,.08,.87,.06,1.47,.58,1.54,1.51,.07,.96,.1,1.91,.1,2.87,0,10.39,0,20.79,0,31.18,0,.96,0,1.92-.1,2.87-.1,.88-.69,1.47-1.56,1.54-1.27,.11-2.55,.1-3.83,.1-11.03,0-22.07,0-33.1,0-1.28,0-2.56,.02-3.83,.1-.91,.06-1.46,.61-1.5,1.52-.07,1.6-.1,3.19-.1,4.79,0,51.01,0,102.03-.02,153.04,0,7.87,.92,6.78-6.92,6.82-10.23,.05-20.47,.02-30.7,0-1.28,0-2.55-.04-3.83-.13-.71-.05-1.19-.54-1.23-1.23-.1-1.43-.15-2.87-.15-4.31,0-25.91,0-51.81,0-77.72Z"/>
      <path class="cls-1" d="M277.05,149.03c0,39.5,0,78.99,0,118.49,0,6.22,.47,5.71-5.66,5.71-10.71,0-21.43,0-32.14,0-.96,0-1.92,0-2.88-.03-1.11-.03-1.82-.57-1.89-1.71-.07-1.11-.07-2.24-.07-3.35,0-79.47,0-158.94,0-238.41,0-1.12,.02-2.24,.09-3.35,.06-.9,.59-1.48,1.49-1.58,.79-.09,1.6-.07,2.4-.07,11.51,0,23.03,0,34.54,0,.64,0,1.28-.01,1.92,.03,1.55,.1,2.08,.54,2.15,1.96,.08,1.44,.05,2.88,.05,4.32,0,39.34,0,78.67,0,118.01Z"/>
      <path class="cls-2" d="M1126.25,118.81c-.9-2.5-.85-4.6-.98-6.66-.97-15.31-1.89-30.63-2.82-45.95-.06-.96-.14-1.92-.15-2.87-.03-1.87,.23-2.17,2.22-2.24,20.43-.67,36.6,7.38,48.6,23.87,1.53,2.1,1.47,2.36-.64,3.74-10.44,6.82-20.89,13.62-31.34,20.42-4.81,3.13-9.63,6.26-14.9,9.69Z"/>
    </g>
  </g>
</svg>