<?xml version="1.0" encoding="utf-8"?>
<!-- Generator: Adobe Illustrator 15.0.0, SVG Export Plug-In . SVG Version: 6.00 Build 0)  -->
<!DOCTYPE svg PUBLIC "-//W3C//DTD SVG 1.0//EN" "http://www.w3.org/TR/2001/REC-SVG-20010904/DTD/svg10.dtd">
<svg version="1.0" id="Layer_1" xmlns="http://www.w3.org/2000/svg" xmlns:xlink="http://www.w3.org/1999/xlink" x="0px" y="0px"
	 width="827px" height="211px" viewBox="0 0 827 211" enable-background="new 0 0 827 211" xml:space="preserve">
<path fill="#00A651" d="M40.686,34.305h27.756V15.521H40.686V2.234L1.913,34.305h13.316v66.482c0,17.528,16.61,31.635,24.655,31.635
	c8.343,0,21.952,1.633,28.518-12.163V100.03c-0.607,1.001-5.162,9.814-13.853,9.814c-9.791,0-14.272-9.537-13.864-16.1V34.305
	L40.686,34.305z"/>
<path d="M94.989,15.917H68.442v192.666H95.62v-91.216c6.551,12.17,22.121,17.754,35.494,17.754
	c30.278,0,44.498-27.778,44.498-67.708c0-27.824-16.28-54.793-48.4-54.793c-10.726,0-25.448,6.391-31.2,14.999H95.62L94.989,15.917
	L94.989,15.917z M94.007,76.668c0-14.779,6.877-35.56,27.423-35.56c24.411,0,27.466,19.071,27.466,35.56
	c0,16.461-3.055,35.538-27.466,35.538C100.884,112.206,94.007,91.418,94.007,76.668L94.007,76.668z"/>
<g>
	<polygon points="240.6,142.878 229.105,142.878 229.105,97.614 212.499,97.614 212.499,87.902 257.2,87.902 257.2,97.614 
		240.6,97.614 240.6,142.878 	"/>
	<polygon points="272.049,118.226 272.049,142.878 260.566,142.878 260.566,87.902 272.049,87.902 272.049,108.74 293.489,108.74 
		293.489,87.902 304.951,87.902 304.951,142.878 293.489,142.878 293.489,118.226 272.049,118.226 	"/>
	<path d="M337.121,86.474c7.25,0,26.383,3.124,26.383,28.93c0,25.779-19.132,28.912-26.383,28.912
		c-7.297,0-26.406-3.133-26.406-28.912C310.715,89.598,329.824,86.474,337.121,86.474L337.121,86.474z M337.121,134.608
		c6.179,0,14.893-3.835,14.893-19.204c0-15.396-8.714-19.235-14.893-19.235c-6.215,0-14.932,3.839-14.932,19.235
		C322.189,130.773,330.906,134.608,337.121,134.608L337.121,134.608z"/>
	<polygon points="422.362,142.878 411.646,142.878 411.646,96.938 411.485,96.938 401.252,142.878 389.994,142.878 379.963,96.938 
		379.817,96.938 379.817,142.878 369.09,142.878 369.09,87.902 385.862,87.902 395.813,131.22 395.955,131.22 405.74,87.902 
		422.362,87.902 422.362,142.878 	"/>
	<path d="M438.512,125.957c0.096,3.067,1.611,8.879,11.624,8.879c5.459,0,11.499-1.306,11.499-7.134
		c0-4.274-4.153-5.422-9.966-6.794l-5.876-1.399c-8.899-2.056-17.454-4.043-17.454-16.145c0-6.116,3.282-16.89,21.133-16.89
		c16.817,0,21.33,11.01,21.429,17.737h-11.024c-0.313-2.441-1.223-8.269-11.276-8.269c-4.359,0-9.543,1.616-9.543,6.596
		c0,4.274,3.507,5.191,5.83,5.732l13.378,3.287c7.515,1.858,14.397,4.905,14.397,14.761c0,16.56-16.852,17.998-21.676,17.998
		c-20.042,0-23.478-11.539-23.478-18.359H438.512L438.512,125.957z"/>
	<path d="M502.262,86.474c7.27,0,26.383,3.124,26.383,28.93c0,25.779-19.113,28.912-26.383,28.912
		c-7.273,0-26.41-3.133-26.41-28.912C475.852,89.598,494.988,86.474,502.262,86.474L502.262,86.474z M502.262,134.608
		c6.236,0,14.94-3.835,14.94-19.204c0-15.396-8.704-19.235-14.94-19.235c-6.182,0-14.919,3.839-14.919,19.235
		C487.343,130.773,496.08,134.608,502.262,134.608L502.262,134.608z"/>
	<polygon points="568.253,87.902 578.954,87.902 578.954,142.878 567.483,142.878 545.061,103.676 544.932,103.676 544.932,142.878 
		534.194,142.878 534.194,87.902 546.268,87.902 568.1,126.185 568.253,126.185 568.253,87.902 	"/>
	<path d="M595.123,142.878h-7.449V87.902h24.734c10.164,0,16.324,6.595,16.324,15.462c0,7.661-4.357,16.313-16.324,16.313h-17.285
		V142.878L595.123,142.878z M595.123,113.32h14.789c6.634,0,11.152-2.439,11.152-9.885c0-6.961-4.755-9.174-10.877-9.174h-15.064
		V113.32L595.123,113.32z"/>
	<path d="M643.242,142.878h-7.403V87.902h25.382c9.068,0,18.084,3.15,18.084,14.776c0,8.105-4.157,11.1-7.639,13.17
		c3.13,1.287,6.266,2.684,6.581,10.336l0.445,9.948c0.069,3.062,0.451,4.195,2.756,5.513v1.232h-9.124
		c-1.062-3.385-1.282-11.729-1.282-13.802c0-4.497-0.915-9.788-9.821-9.788h-17.979V142.878L643.242,142.878z M643.242,112.944
		h17.223c5.467,0,11.201-1.387,11.201-9.509c0-8.48-6.183-9.174-9.857-9.174h-18.566V112.944L643.242,112.944z"/>
	<polygon points="728.462,142.878 687.869,142.878 687.869,87.902 727.931,87.902 727.931,94.497 695.308,94.497 695.308,111.333 
		725.394,111.333 725.394,117.917 695.308,117.917 695.308,136.279 728.462,136.279 728.462,142.878 	"/>
	<path d="M768.237,103.992c-0.359-8.506-7.401-11.205-13.608-11.205c-4.676,0-12.548,1.32-12.548,9.668
		c0,4.664,3.271,6.188,6.507,6.957l15.675,3.603c7.134,1.694,12.492,5.98,12.492,14.688c0,13.022-12.08,16.614-21.512,16.614
		c-10.18,0-14.161-3.061-16.623-5.28c-4.671-4.2-5.585-8.803-5.585-13.914h6.963c0,9.928,8.115,12.843,15.155,12.843
		c5.356,0,14.408-1.378,14.408-9.263c0-5.731-2.694-7.578-11.712-9.707l-11.273-2.622c-3.593-0.841-11.711-3.358-11.711-12.938
		c0-8.531,5.59-16.961,18.912-16.961c19.205,0,21.137,11.462,21.423,17.518H768.237L768.237,103.992z"/>
	<path d="M816.217,103.992c-0.367-8.506-7.425-11.205-13.622-11.205c-4.67,0-12.547,1.32-12.547,9.668
		c0,4.664,3.297,6.188,6.528,6.957l15.684,3.603c7.124,1.694,12.479,5.98,12.479,14.688c0,13.022-12.091,16.614-21.509,16.614
		c-10.195,0-14.142-3.061-16.608-5.28c-4.687-4.2-5.615-8.803-5.615-13.914h6.976c0,9.928,8.108,12.843,15.168,12.843
		c5.348,0,14.36-1.378,14.36-9.263c0-5.731-2.625-7.578-11.712-9.707l-11.239-2.622c-3.625-0.841-11.689-3.358-11.689-12.938
		c0-8.531,5.593-16.961,18.909-16.961c19.21,0,21.13,11.462,21.44,17.518H816.217L816.217,103.992z"/>
</g>
</svg>
